HIERARCHY
ROOT Hips
{
  OFFSET 40.9192 92.6879 18.85
  CHANNELS 6 Xposition Yposition Zposition Zrotation Xrotation Yrotation
  JOINT LeftUpLeg
  {
    OFFSET 8.64259 1.95398 -2.38835
    CHANNELS 3 Zrotation Xrotation Yrotation
    JOINT LeftLeg
    {
      OFFSET 43.7702 0 0
      CHANNELS 3 Zrotation Xrotation Yrotation
      JOINT LeftFoot
      {
        OFFSET 40.6238 0 0
        CHANNELS 3 Zrotation Xrotation Yrotation
        JOINT LeftToeBase
        {
          OFFSET 12.7242 0 0
          CHANNELS 3 Zrotation Xrotation Yrotation
          End Site
          {
            OFFSET 0 0 0
          }
        }
      }
    }
  }
  JOINT RightUpLeg
  {
    OFFSET -8.2249 1.95398 -2.59336
    CHANNELS 3 Zrotation Xrotation Yrotation
    JOINT RightLeg
    {
      OFFSET 43.5653 0 0
      CHANNELS 3 Zrotation Xrotation Yrotation
      JOINT RightFoot
      {
        OFFSET 40.6238 0 0
        CHANNELS 3 Zrotation Xrotation Yrotation
        JOINT RightToeBase
        {
          OFFSET 12.7242 0 0
          CHANNELS 3 Zrotation Xrotation Yrotation
          End Site
          {
            OFFSET 0 0 0
          }
        }
      }
    }
  }
  JOINT Spine
  {
    OFFSET 0.165834 0.87714 6.61349
    CHANNELS 3 Zrotation Xrotation Yrotation
    JOINT Spine1
    {
      OFFSET 7.38963 1.71661e-005 0
      CHANNELS 3 Zrotation Xrotation Yrotation
      JOINT Spine2
      {
        OFFSET 11.9445 1.14441e-005 0
        CHANNELS 3 Zrotation Xrotation Yrotation
        JOINT Spine3
        {
          OFFSET 14.7254 4.19617e-005 0
          CHANNELS 3 Zrotation Xrotation Yrotation
          JOINT Spine4
          {
            OFFSET 10.9679 0 0
            CHANNELS 3 Zrotation Xrotation Yrotation
            JOINT RightShoulder
            {
              OFFSET 2.46616 -1.6653 3.69651
              CHANNELS 3 Zrotation Xrotation Yrotation
              JOINT RightArm
              {
                OFFSET 13.0012 0 0
                CHANNELS 3 Zrotation Xrotation Yrotation
                JOINT RightForeArm
                {
                  OFFSET 28.7848 1.52588e-005 0
                  CHANNELS 3 Zrotation Xrotation Yrotation
                  JOINT RightHand
                  {
                    OFFSET 26.5688 1.52588e-005 0
                    CHANNELS 3 Zrotation Xrotation Yrotation
                    End Site
                    {
                      OFFSET 0 0 0
                    }
                  }
                }
              }
            }
            JOINT LeftShoulder
            {
              OFFSET 2.38034 -1.29275 -3.7523
              CHANNELS 3 Zrotation Xrotation Yrotation
              JOINT LeftArm
              {
                OFFSET 16.3182 6.10351e-005 0
                CHANNELS 3 Zrotation Xrotation Yrotation
                JOINT LeftForeArm
                {
                  OFFSET 27.0901 0 0
                  CHANNELS 3 Zrotation Xrotation Yrotation
                  JOINT LeftHand
                  {
                    OFFSET 24.5451 1.52588e-005 0
                    CHANNELS 3 Zrotation Xrotation Yrotation
                    End Site
                    {
                      OFFSET 0 0 0
                    }
                  }
                }
              }
            }
            JOINT Neck
            {
              OFFSET 5.0226 -0.0266342 0
              CHANNELS 3 Zrotation Xrotation Yrotation
              JOINT Head
              {
                OFFSET 6.69363 2.86102e-005 0
                CHANNELS 3 Zrotation Xrotation Yrotation
                End Site
                {
                  OFFSET 0 0 0
                }
              }
            }
          }
        }
      }
    }
  }
}
MOTION
Frames:	11
Frame Time:	0.0416667
-3.57554 98.0669 -9.59495 80.0285 -52.2254 83.3619 -169.578 34.1682 92.8329 -9.94546 7.41518 -6.01219 41.9969 -12.8266 -10.6804 39.3492 9.09677 14.8326 178.901 -1.53222 88.0925 -65.6004 -3.21765 -5.83618 30.9521 5.70063 6.7156 19.697 0.762706 -8.4101 1.73832 7.47579 -89.7952 11.927 3.55299 0.0254494 0.260849 3.55071 -0.131155 -22.3105 3.38089 1.09333 -2.29788 3.3809 1.09333 94.61 -42.5847 -94.9153 39.0963 -28.5426 18.9423 -17.4964 3.60679 -104.335 -31.8411 0.281694 -5.69798 -86.9494 -42.8726 82.0453 -52.527 12.4733 50.5238 7.32436 -3.95237 -91.7416 43.4664 1.84162 0.196762 8.61961 -1.85432 0.126212 -2.28123 -1.86005 -0.685473 
2.75429 95.6364 -2.91584 84.1023 -50.3215 84.9039 -168.381 30.6265 89.6217 -16.2583 15.165 -6.79673 41.274 -12.0883 -12.4423 42.8009 12.8432 17.3284 179.231 2.93248 88.2179 -83.4533 -0.0260396 -4.07728 29.4223 5.08279 6.18981 19.0537 0.442619 -6.21508 1.37677 7.71749 -89.5498 11.4338 2.94956 0.59864 -0.233845 2.97309 0.468124 -22.7904 2.63323 1.45798 -2.77775 2.63322 1.45797 94.5376 -44.2286 -94.7509 38.8171 -26.468 20.5732 -12.0946 -0.95102 -98.8803 -30.4688 0.844395 -8.08417 -88.4458 -44.4005 79.9348 -48.6371 11.6953 47.2578 8.5737 -3.25484 -90.5498 42.9136 2.31012 1.38708 6.47125 -1.64594 -1.70816 -0.937455 -1.32598 0.23791 
8.92138 93.0392 3.55018 86.1226 -48.4082 85.115 -167.893 30.1231 87.3775 -28.7589 27.2641 -8.75852 54.7911 -3.40639 2.6437 37.2534 6.7275 3.6012 177.886 12.2601 88.3099 -99.8245 4.28028 -2.4437 27.3424 3.33679 4.42422 19.3155 0.372478 -5.74594 0.987098 7.88266 -89.2377 11.095 2.31845 1.29271 -0.574433 2.3731 1.18937 -23.1157 1.82281 1.92977 -3.10302 1.82283 1.92978 94.8533 -46.6475 -93.8455 37.2456 -25.3561 21.2598 -12.1773 -1.92705 -94.9238 -29.7914 0.554071 -6.94272 -90.462 -45.3327 76.95 -44.0989 10.9224 43.41 9.18299 -2.98801 -90.1086 42.2603 1.74563 0.101489 4.94916 -1.35884 -4.35217 0.713047 -0.589418 1.50451 
15.0558 90.3219 9.45912 86.6388 -49.5773 84.1165 -166.727 30.4225 85.3942 -44.3096 20.0886 -8.42364 67.4719 6.94832 3.42227 31.2788 1.94192 0.418096 178.795 25.2979 87.8787 -113.834 6.95666 -2.00254 23.5799 1.78786 2.86794 20.4175 0.52159 -6.82665 0.648175 8.00907 -88.8785 10.835 1.8086 2.06234 -0.83623 1.8976 1.98075 -23.3626 1.10539 2.51032 -3.34998 1.1054 2.51031 94.3166 -47.0201 -94.6496 37.7262 -24.2262 21.9435 -11.9196 -5.58197 -89.0411 -32.0576 0.280798 -5.66449 -91.1361 -46.8542 76.2787 -38.8312 10.7456 38.152 10.2747 -2.74107 -90.4169 43.4581 2.44608 1.62667 5.63109 -0.080558 -5.99275 1.59517 1.01325 2.18834 
20.7439 88.3861 15.1382 85.3923 -48.2462 82.1896 -167.587 28.5407 82.948 -51.2442 19.5194 -6.68268 71.971 12.0238 7.48531 36.9714 6.45711 1.41394 178.303 40.7632 89.1681 -122.04 4.77178 -2.2159 19.6596 2.3961 3.72759 23.0423 0.473454 -6.61131 0.0846398 8.20449 -88.6697 10.4477 0.778615 2.57345 -1.22549 0.891082 2.53671 -23.7401 -0.0304879 2.68841 -3.7274 -0.0305028 2.6884 93.5082 -47.1769 -95.9162 37.586 -22.7254 23.0734 -10.1507 -7.77387 -83.0312 -33.0685 0.00141298 -4.64803 -94.7839 -48.6164 71.2174 -31.1294 9.32307 30.2191 12.4697 -2.77462 -91.668 39.5472 3.00362 3.7405 10.6554 0.822286 -6.59006 -0.845079 2.25072 2.76534 
27.6794 88.5373 21.1723 84.2106 -47.2206 83.7701 -168.613 23.7633 85.3689 -52.1294 22.4269 -5.65236 72.8343 13.8859 10.3772 41.2487 9.91382 1.89658 175.893 51.5191 94.2587 -120.78 2.70145 -2.49284 21.8505 3.195 4.48221 24.5297 0.427997 -6.30711 -0.212416 8.22657 -88.9394 10.4164 0.0630264 2.10238 -1.25616 0.155468 2.09756 -23.7787 -0.57162 2.0242 -3.766 -0.571629 2.02418 93.413 -48.2391 -95.8803 37.1665 -22.4855 27.3603 -9.1401 -9.53468 -80.4723 -33.6912 0.141013 -5.08062 -96.2292 -47.2213 68.6021 -26.0714 10.4251 21.2927 12.7234 -2.77117 -92.3253 41.4521 3.11161 3.60502 11.328 1.27193 -7.51444 -0.972894 2.96256 3.92184 
34.9594 90.7974 27.744 84.9536 -45.0171 86.3582 -170.749 15.0644 87.9229 -47.0128 24.3856 -3.5628 69.4436 10.8419 8.53796 44.953 13.0377 3.06159 172.545 55.8138 98.124 -112.387 1.30337 -2.35558 30.859 3.02633 3.63032 24.6829 0.674338 -8.76856 -0.68592 8.22692 -89.2207 10.425 -1.00902 1.63704 -1.24667 -0.935981 1.67984 -23.7796 -1.45433 1.25817 -3.76694 -1.45432 1.25817 93.5186 -49.4134 -95.5107 37.0837 -23.0693 32.9061 -9.75903 -10.9641 -78.1108 -33.3098 0.229477 -5.28072 -94.1678 -46.1059 71.394 -23.5481 9.22801 14.7106 13.6491 -4.1675 -96.6002 40.864 2.6277 2.48203 9.25631 2.28343 -8.34857 -0.553608 4.03527 4.9104 
42.8979 94.1207 34.8439 84.8619 -44.6108 88.1944 -171.476 5.07873 88.6127 -37.2683 28.7927 -2.09016 59.4787 1.61295 4.35327 47.2309 15.3339 5.69541 172.643 56.6308 99.7103 -98.6315 0.546747 -1.71968 38.1179 2.81357 3.02333 23.9709 0.701447 -8.84315 -1.02257 8.1274 -89.485 10.6279 -1.79959 1.18643 -1.04239 -1.7456 1.26448 -23.5861 -2.07292 0.590579 -3.57347 -2.07294 0.59057 93.1611 -50.156 -95.9361 37.3434 -24.4975 38.446 -8.91168 -11.9256 -76.7805 -30.2412 0.487488 -6.38387 -91.9414 -44.9589 74.5252 -23.4149 7.51474 11.2024 14.7311 -5.74517 -102.256 39.8964 2.58639 2.53458 7.16293 3.46067 -8.90841 -0.747645 5.18575 6.23273 
50.6515 97.0278 42.0259 85.6128 -43.4182 89.4185 -171.466 -2.5645 95.0315 -24.8167 30.7862 -0.635438 42.2463 -10.6593 -6.18061 46.2544 14.3979 4.76778 172.393 54.9279 98.9634 -82.1898 0.821314 -0.526411 40.9431 3.38801 3.47482 23.8303 0.70669 -8.86068 -1.3625 8.11154 -89.6939 10.6623 -2.57247 0.842117 -1.0065 -2.53292 0.954575 -23.562 -2.70656 0.0295112 -3.54932 -2.70657 0.0294999 93.5317 -50.4599 -95.3143 37.7837 -25.0008 43.625 -7.10786 -11.9074 -75.8679 -29.2362 0.503048 -6.60854 -91.7531 -44.7836 74.7758 -23.4597 4.73031 9.85735 15.4713 -7.44898 -108.307 37.1884 2.19201 1.97502 5.87154 4.02359 -8.92265 -0.857698 5.68088 7.43043 
58.5589 99.6287 49.4842 85.053 -42.6437 89.8909 -170.201 -11.1476 95.5554 -16.0084 31.2534 0.175398 29.7276 -16.6897 -14.3327 28.0849 -1.46008 7.2121 172.936 51.4289 98.1121 -62.3969 -2.0625 0.829147 42.4044 4.10566 4.04616 21.2012 0.901577 -9.78574 -1.5878 8.02476 -89.9447 10.8337 -3.13595 0.403396 -0.833538 -3.11515 0.541148 -23.3987 -3.11208 -0.55868 -3.386 -3.11207 -0.558683 93.1478 -49.8253 -96.0148 39.2937 -23.8814 48.9176 -6.24973 -10.7806 -77.3474 -27.6293 0.306165 -6.08746 -91.6548 -45.0731 75.0081 -23.3642 2.99678 8.98604 15.1819 -8.77838 -113.912 37.9523 1.57857 0.178219 5.47017 4.3975 -8.39 -1.33891 5.93712 8.42348 
66.6764 101.086 57.2194 83.0433 -43.0421 87.9428 -169.907 -11.8484 96.1019 -21.9153 26.1091 0.285972 33.5092 -15.3069 -10.0572 22.802 -6.61049 9.27986 175.001 47.7285 96.4421 -41.7945 -6.16379 1.23577 43.34 4.46419 4.303 22.8653 0.586472 -7.59293 -1.73655 7.80151 -89.9846 11.2809 -3.44863 0.372931 -0.385552 -3.42891 0.524517 -22.9567 -3.40109 -0.682006 -2.94402 -3.4011 -0.682021 92.339 -48.8289 -97.4554 41.0808 -22.6588 53.4827 -8.30342 -9.95479 -79.0741 -27.029 0.45521 -6.68967 -91.1283 -44.9368 75.801 -23.7137 2.42502 9.01973 15.0862 -10.7213 -119.307 35.6093 0.885705 -1.53377 5.18538 4.83956 -8.35224 -1.48651 6.36974 9.5521 
